<svg fill="none" height="24" viewBox="0 0 116 24" width="116" xmlns="http://www.w3.org/2000/svg"><g fill="#000" fill-opacity=".87"><path d="m4.65039 15.384v-15.119992h-4.055999v18.431992h12.696009v-3.312z"/><path d="m20.9368 19.08c4.224 0 6.936-2.856 6.936-6.984 0-4.17599-2.64-6.93599-6.912-6.93599-4.248 0-6.984 2.808-6.984 6.93599 0 4.176 2.664 6.984 6.96 6.984zm0-2.952c-2.04 0-3.048-1.464-3.048-4.032 0-2.56799 1.032-3.98399 3.072-3.98399 2.016 0 3.024 1.416 3.024 3.98399 0 2.568-1.032 4.032-3.048 4.032z"/><path d="m39.2569 5.42401-.144 1.488c-.912-1.176-2.256-1.872-3.96-1.872-3.312 0-5.712 2.352-5.712 6.43199 0 3.984 2.592 6.144 5.664 6.144 1.608 0 2.928-.552 3.84-1.512v2.04c0 1.872-.936 2.664-2.568 2.664-1.32 0-2.112-.48-2.592-1.584l-3.504.432c.744 2.568 2.64 3.912 6.072 3.912 4.008 0 6.384-1.944 6.384-6v-12.14399zm-3.192 9.28799c-1.824 0-2.88-1.368-2.88-3.336 0-1.99199 1.056-3.33599 2.88-3.33599 1.392 0 2.52.792 2.88 2.35199v1.944c-.36 1.584-1.464 2.376-2.88 2.376z"/><path d="m51.8181 19.08c4.224 0 6.936-2.856 6.936-6.984 0-4.17599-2.64-6.93599-6.912-6.93599-4.248 0-6.984 2.808-6.984 6.93599 0 4.176 2.664 6.984 6.96 6.984zm0-2.952c-2.04 0-3.048-1.464-3.048-4.032 0-2.56799 1.032-3.98399 3.072-3.98399 2.016 0 3.024 1.416 3.024 3.98399 0 2.568-1.032 4.032-3.048 4.032z"/><path d="m69.9769 5.54401-4.152.192.144-1.104v-2.976h-3.792v2.976l.144 1.08-3.072-.168v2.52l3.12-.144-.192 1.824v5.15999c0 2.712 1.44 3.792 4.392 3.792h3.384v-3.072h-2.52c-.96 0-1.464-.408-1.464-1.536v-4.34399l-.192-1.848 4.2.168z"/><path d="m80.8806 5.54401-2.784 9.16799v-.072l-3.024-9.09599h-4.08l5.184 13.48799-.048.144c-.528 1.416-.96 1.656-2.04 1.656h-2.016v2.904h1.944c2.808 0 4.32-.96 5.496-4.08l5.304-14.11199z"/><path d="m94.1642 5.18401c-1.824 0-3.216.72-4.128 2.04l-.192-1.68h-3.432v18.04799h3.84v-6.384c.912 1.2 2.232 1.872 3.912 1.872 3.48 0 5.8798-2.856 5.8798-6.936 0-4.15199-2.3278-6.95999-5.8798-6.95999zm-.912 10.79999c-1.416 0-2.592-.888-3-2.688v-2.448c.408-1.75199 1.584-2.61599 3-2.61599 1.848 0 2.928 1.512 2.928 3.86399 0 2.328-1.08 3.888-2.928 3.888z"/><path d="m115.406 12.24c0-4.03199-2.304-7.07999-6.912-7.07999-4.44 0-6.912 2.904-6.912 7.00799 0 4.152 2.592 6.912 7.056 6.912 3.12 0 5.328-1.392 6.36-3.672l-3.384-.672c-.648 1.152-1.632 1.56-2.904 1.56-2.088 0-3.24-1.104-3.408-3.336h10.104zm-6.912-4.53599c2.04 0 2.952 1.248 3.168 3.14399h-6.336c.24-2.13599 1.464-3.14399 3.168-3.14399z"/></g></svg>